<svg width="50" height="61" viewBox="0 0 50 61" fill="none" xmlns="http://www.w3.org/2000/svg">
<path d="M15.2229 20.5C12.0229 17.2 9.72296 14.4 6.92296 12.1C4.12296 9.79999 5.92296 8.69999 7.42296 7.09999C9.12296 5.29999 10.5229 4.1 12.5229 6.8C14.5229 9.5 16.9229 12 19.1229 14.6C19.6229 14.3 20.2229 14 20.7229 13.7C20.7229 10.3 20.9229 6.90001 20.7229 3.50001C20.5229 0.400012 22.2229 -0.0999821 24.7229 0.100018C27.0229 0.200018 29.6229 -0.399964 29.3229 3.40004C29.1229 6.00004 29.2229 8.70004 29.2229 11.4C29.2229 12.1 29.6229 12.9 29.8229 13.6C30.5229 13.3 31.3229 13.1 31.8229 12.6C33.7229 10.8 35.7229 8.90004 37.3229 6.90004C39.4229 4.30004 40.8229 5.6 42.5229 7.3C44.2229 9 45.5229 10.4 42.8229 12.4C40.7229 14 38.9229 16 37.0229 17.9C36.5229 18.4 36.4229 19.3 36.0229 20C36.7229 20.2 37.5229 20.6 38.2229 20.7C40.5229 20.8 42.8229 20.8 45.2229 20.7C47.9229 20.6 49.923 20.6 49.923 24.5C49.823 28.1 48.323 28.6 45.423 28.5C42.823 28.3 40.123 28.4 37.423 28.6C37.023 28.6 36.123 30.6 36.423 30.9C38.423 33.1 40.5229 35.2 42.8229 37.2C44.9229 39 44.6229 40.3 42.7229 42C41.1229 43.4 39.9229 45.5 37.5229 42.8C34.4229 39.3 30.9229 36.2 27.7229 32.8C25.7229 30.7 24.2229 30.4 22.0229 32.8C18.9229 36.3 15.4229 39.3 12.2229 42.8C9.82295 45.4 8.62294 43.3 7.02294 42C5.02294 40.4 4.82296 39.1 6.92296 37.4C8.92296 35.7 10.8229 33.8 12.6229 31.8C13.2229 31.1 13.5229 30.1 14.0229 29.3C13.1229 29.1 12.223 28.6 11.423 28.6C8.62296 28.5 5.72296 28.4 2.92296 28.6C-0.27704 28.8 0.122936 26.7 0.0229357 24.7C-0.0770643 22.5 0.0229356 20.7 3.02294 20.8C6.92294 20.7 10.7229 20.5 15.2229 20.5Z" fill="black"/>
<path d="M20.7229 51.2001C20.7229 49.5001 20.8229 47.9001 20.7229 46.2001C20.5229 43.1001 20.6229 40.9001 25.0229 40.9001C29.2229 40.9001 29.5229 43.0001 29.4229 46.1001C29.3229 49.4001 29.2229 52.7001 29.4229 56.0001C29.7229 59.7001 28.5229 60.8001 24.7229 60.9001C20.6229 61.0001 20.5229 59.0001 20.7229 56.1001C20.7229 54.5001 20.7229 52.8001 20.7229 51.2001Z" fill="black"/>
</svg>
