<svg width="49" height="45" viewBox="0 0 49 45" fill="none" xmlns="http://www.w3.org/2000/svg">
<path fill-rule="evenodd" clip-rule="evenodd" d="M5.07556 0.307866C4.4731 0.0352734 3.81368 -0.0587418 3.16594 0.0356045C2.51821 0.129951 1.90584 0.409211 1.39257 0.844316C0.879295 1.27942 0.483887 1.85447 0.247503 2.5096C0.0111189 3.16473 -0.0576037 3.876 0.0484908 4.56938L5.57779 40.6245C6.11414 44.1023 9.6638 46.0968 12.6308 44.3644C15.1126 42.9151 18.7988 40.6821 22.1145 38.3522C23.7723 37.1859 28.8505 33.4512 28.2264 30.7936C27.6901 28.5214 19.1572 19.9826 14.2813 14.906C12.3675 12.9116 13.2403 11.761 15.5003 13.5956C21.1149 18.1506 30.1232 25.0776 33.1023 27.0275C35.7305 28.7467 37.1006 29.0403 38.7389 28.7467C41.7278 28.2121 44.4998 27.3839 46.7622 26.3749C49.8194 25.012 49.6707 20.4937 46.7647 19.178L5.07556 0.307866Z" fill="#1C1142"/>
</svg>
