<svg width="1247" height="1475" viewBox="0 0 1247 1475" fill="none" xmlns="http://www.w3.org/2000/svg">
<path d="M1246.01 1010.83C1246.01 1042.33 1246.01 1073.83 1246.01 1105.32C1246.01 1107.72 1246.03 1110.12 1245.86 1112.51C1245.54 1116.95 1243.58 1120.47 1239.54 1122.58C1235.99 1124.44 1232.68 1126.71 1229.19 1128.61C1224.13 1131.36 1219.3 1134.5 1214.27 1137.28C1209.65 1139.83 1205.06 1142.41 1200.57 1145.18C1195.81 1148.11 1190.79 1150.61 1186.1 1153.67C1185.04 1154.36 1183.82 1154.83 1182.68 1155.41C1181.26 1156.14 1179.74 1156.74 1178.43 1157.63C1172.87 1161.43 1166.76 1164.26 1161.04 1167.78C1158.86 1169.12 1156.62 1170.34 1154.38 1171.58C1151.44 1173.2 1148.51 1174.83 1145.78 1176.8C1144.36 1177.82 1142.8 1178.67 1141.23 1179.45C1138.07 1181.02 1135.01 1182.73 1132.08 1184.7C1130.89 1185.5 1129.62 1186.19 1128.36 1186.89C1127.52 1187.36 1126.63 1187.72 1125.8 1188.2C1122.07 1190.37 1118.42 1192.68 1114.62 1194.72C1110.95 1196.69 1107.29 1198.63 1103.85 1200.99C1101.75 1202.43 1099.47 1203.64 1097.2 1204.8C1094.49 1206.19 1091.83 1207.65 1089.33 1209.38C1088.8 1209.74 1088.31 1210.19 1087.73 1210.44C1080.69 1213.57 1074.59 1218.38 1067.64 1221.65C1066.49 1222.19 1065.39 1222.87 1064.32 1223.57C1060.17 1226.29 1055.81 1228.64 1051.46 1231.02C1050.76 1231.4 1050.01 1231.73 1049.37 1232.2C1045.74 1234.86 1041.75 1236.9 1037.75 1238.9C1036.89 1239.33 1036.04 1239.78 1035.26 1240.34C1031.99 1242.67 1028.48 1244.56 1024.9 1246.35C1023.05 1247.28 1021.3 1248.42 1019.54 1249.53C1016.7 1251.32 1013.86 1253.1 1010.76 1254.44C1009.59 1254.94 1008.5 1255.64 1007.44 1256.35C1003.45 1259.03 999.371 1261.54 995.011 1263.58C993.861 1264.12 992.751 1264.79 991.711 1265.53C988.961 1267.48 986.031 1269.1 983.001 1270.57C982.861 1270.64 982.711 1270.71 982.571 1270.79C976.621 1274.23 970.761 1277.81 964.691 1281.04C961.871 1282.54 959.261 1284.44 956.411 1285.87C952.111 1288.03 948.181 1290.78 944.021 1293.17C943.051 1293.73 942.111 1294.34 941.101 1294.83C938.081 1296.31 935.131 1297.91 932.421 1299.91C932.161 1300.1 931.911 1300.3 931.621 1300.44C924.941 1303.55 918.951 1307.91 912.381 1311.23C910.241 1312.31 908.181 1313.54 906.181 1314.86C902.971 1316.98 899.711 1318.98 896.231 1320.63C895.081 1321.18 893.911 1321.74 892.861 1322.47C889.301 1324.94 885.531 1327.03 881.641 1328.91C881.061 1329.19 880.461 1329.44 879.951 1329.81C875.011 1333.39 869.321 1335.71 864.251 1339.05C857.971 1343.2 851.051 1346.25 844.861 1350.52C844.341 1350.88 843.751 1351.16 843.181 1351.44C839.291 1353.33 835.521 1355.4 831.951 1357.86C830.251 1359.03 828.281 1359.81 826.471 1360.84C824.111 1362.18 821.731 1363.5 819.451 1364.97C817.021 1366.52 814.591 1368.02 811.971 1369.25C809.521 1370.4 807.281 1371.98 804.941 1373.35C802.601 1374.72 800.241 1376.07 797.891 1377.43C795.401 1378.87 792.901 1380.29 790.421 1381.74C789.321 1382.38 788.281 1383.16 787.151 1383.74C782.881 1385.93 778.671 1388.18 774.681 1390.89C771.921 1392.77 768.811 1394.13 765.881 1395.78C764.351 1396.64 762.891 1397.63 761.391 1398.55C759.891 1399.47 758.391 1400.39 756.871 1401.26C754.371 1402.69 751.831 1404.03 749.361 1405.5C746.061 1407.46 742.771 1409.43 739.291 1411.08C738.281 1411.56 737.261 1412.06 736.351 1412.7C733.191 1414.9 729.851 1416.77 726.481 1418.62C724.241 1419.85 722.121 1421.29 719.891 1422.55C717.671 1423.81 715.361 1424.92 713.141 1426.19C710.361 1427.77 707.641 1429.45 704.891 1431.08C702.831 1432.3 700.751 1433.49 698.681 1434.69C695.781 1436.37 692.871 1438.05 689.971 1439.74C689.281 1440.14 688.651 1440.67 687.931 1440.99C682.081 1443.64 676.931 1447.52 671.281 1450.49C665.191 1453.7 659.601 1457.75 653.381 1460.72C652.091 1461.34 650.921 1462.22 649.681 1462.95C644.311 1466.12 638.921 1469.26 633.561 1472.44C631.021 1473.95 628.341 1474.77 625.341 1474.59C623.551 1474.48 621.841 1474.18 620.281 1473.29C615.141 1470.36 609.921 1467.57 604.631 1464.92C604.061 1464.63 603.531 1464.26 603.021 1463.88C600.181 1461.77 597.081 1460.11 593.911 1458.57C592.041 1457.66 590.261 1456.62 588.571 1455.37C587.171 1454.33 585.591 1453.49 584.021 1452.72C580.411 1450.97 577.031 1448.85 573.671 1446.68C571.791 1445.47 569.861 1444.33 567.871 1443.31C564.311 1441.48 560.881 1439.44 557.441 1437.41C552.071 1434.25 546.741 1431.02 541.271 1428.04C537.481 1425.97 533.711 1423.89 530.111 1421.48C528.261 1420.24 526.261 1419.21 524.281 1418.16C521.171 1416.51 517.981 1415.04 515.181 1412.84C513.941 1411.87 512.421 1411.23 510.991 1410.52C507.551 1408.81 504.151 1407.04 501.001 1404.82C500.741 1404.64 500.491 1404.42 500.211 1404.28C493.161 1400.83 486.821 1396.14 479.771 1392.72C478.341 1392.02 476.971 1391.17 475.661 1390.25C472.771 1388.22 469.711 1386.5 466.551 1384.94C463.831 1383.6 461.171 1382.14 458.701 1380.33C457.041 1379.11 455.081 1378.3 453.271 1377.28C451.051 1376.02 448.831 1374.74 446.631 1373.45C444.971 1372.48 443.371 1371.42 441.671 1370.54C437.841 1368.54 434.111 1366.39 430.491 1364.02C428.751 1362.89 426.921 1361.89 425.091 1360.92C421.711 1359.12 418.221 1357.52 415.161 1355.14C413.921 1354.17 412.351 1353.63 410.961 1352.84C408.451 1351.43 405.971 1349.99 403.471 1348.55C401.391 1347.35 399.371 1346.04 397.241 1344.97C394.231 1343.46 391.331 1341.79 388.551 1339.89C386.971 1338.81 385.351 1337.76 383.701 1336.79C379.991 1334.62 377.241 1331.6 375.571 1327.64C375.011 1326.32 374.521 1324.96 373.991 1323.63C372.571 1320.07 371.141 1316.51 369.711 1312.95C369.061 1311.32 368.331 1309.71 367.761 1308.05C365.651 1302.01 363.571 1295.97 360.781 1290.2C359.741 1288.05 359.051 1285.73 358.321 1283.45C356.821 1278.72 354.961 1274.14 352.801 1269.66C351.971 1267.94 351.271 1266.14 350.681 1264.32C348.831 1258.69 346.791 1253.16 344.311 1247.77C343.181 1245.31 342.441 1242.67 341.481 1240.13C340.471 1237.44 339.581 1234.68 338.321 1232.11C336.471 1228.36 335.011 1224.48 333.761 1220.52C332.411 1216.24 330.771 1212.1 328.791 1208.06C327.671 1205.77 326.801 1203.35 325.991 1200.93C324.261 1195.77 322.511 1190.64 320.021 1185.78C318.861 1183.52 318.091 1181.04 317.301 1178.62C315.651 1173.6 313.751 1168.69 311.451 1163.93C310.901 1162.78 310.361 1161.6 310.031 1160.37C308.611 1155.1 306.491 1150.09 304.301 1145.12C302.871 1141.89 301.621 1138.62 300.551 1135.27C299.581 1132.22 298.421 1129.25 297.011 1126.36C295.321 1122.91 293.931 1119.34 292.761 1115.67C292.181 1113.84 291.521 1112.04 290.951 1110.21C290.411 1108.48 289.411 1107.09 288.121 1105.84C286.431 1104.21 284.481 1103.86 282.371 1104.6C281.341 1104.96 280.361 1105.58 279.481 1106.24C278.591 1106.91 277.801 1107.73 277.071 1108.57C274.251 1111.83 271.461 1115.12 268.681 1118.41C268.161 1119.02 267.771 1119.74 267.221 1120.3C264.201 1123.39 261.461 1126.72 258.591 1129.94C254.861 1134.11 251.261 1138.38 247.611 1142.62C244.271 1146.49 240.811 1150.25 237.411 1154.07C236.241 1155.38 235.101 1156.72 233.941 1158.04C232.991 1159.12 232.051 1160.2 231.101 1161.29C229.631 1162.98 228.171 1164.67 226.711 1166.36C226.501 1166.6 226.321 1166.87 226.101 1167.1C222.361 1171.26 218.601 1175.39 214.881 1179.57C212.441 1182.32 210.081 1185.13 207.661 1187.9C203.881 1192.23 200.021 1196.5 196.301 1200.89C193.401 1204.3 190.521 1207.72 187.361 1210.9C186.121 1212.15 184.871 1213.39 183.621 1214.62C182.301 1215.91 180.701 1216.48 178.851 1216.54C176.401 1216.61 174.101 1216.24 171.891 1215.11C168.331 1213.28 164.911 1211.22 161.541 1209.07C159.661 1207.87 157.721 1206.75 155.791 1205.62C152.341 1203.6 148.871 1201.63 145.441 1199.58C143.791 1198.6 142.141 1197.65 140.411 1196.8C137.841 1195.53 135.401 1193.98 132.921 1192.52C131.961 1191.95 131.091 1191.21 130.101 1190.71C123.521 1187.41 117.411 1183.28 110.911 1179.85C109.781 1179.25 108.541 1178.81 107.511 1178.08C100.961 1173.46 93.6207 1170.19 86.9007 1165.85C82.2207 1162.82 77.2007 1160.3 72.4407 1157.35C70.9507 1156.43 69.3207 1155.72 67.7507 1154.94C65.6007 1153.87 63.5107 1152.75 61.5807 1151.26C60.2007 1150.2 58.6107 1149.38 57.0307 1148.61C53.2907 1146.77 49.7307 1144.63 46.2007 1142.44C44.9807 1141.68 43.7407 1140.94 42.4707 1140.27C38.0907 1137.95 33.9307 1135.24 29.6307 1132.8C24.2107 1129.73 18.7807 1126.66 13.4207 1123.49C12.0507 1122.68 10.5407 1122.1 9.15071 1121.31C7.48071 1120.36 5.84071 1119.37 4.27071 1118.28C3.36071 1117.65 2.48071 1116.88 1.83071 1116C-0.359285 1113.02 -0.819287 1109.77 1.75071 1106.79C2.79071 1105.58 3.97071 1104.49 5.10071 1103.36C10.0507 1098.36 15.0007 1093.36 19.9407 1088.35C20.8407 1087.44 21.7307 1086.51 22.4907 1085.49C23.5607 1084.07 24.8207 1082.88 26.2107 1081.78C27.3307 1080.89 28.4307 1079.92 29.3307 1078.81C33.2807 1073.96 37.8907 1069.75 42.1207 1065.17C43.5307 1063.65 44.8907 1062.08 46.2907 1060.55C47.2607 1059.49 48.2407 1058.43 49.2507 1057.41C52.7307 1053.88 56.2507 1050.39 59.7007 1046.83C61.2607 1045.23 62.6807 1043.5 64.1807 1041.83C65.2507 1040.64 66.3107 1039.44 67.4207 1038.3C71.7907 1033.85 76.1807 1029.42 80.5507 1024.97C82.4507 1023.03 84.3707 1021.11 86.0007 1018.92C86.9507 1017.65 88.1707 1016.57 89.2907 1015.43C94.2207 1010.41 99.3707 1005.59 104.051 1000.34C110.661 992.934 117.831 986.093 124.691 978.943C126.461 977.103 128.091 975.133 129.811 973.233C130.881 972.043 131.951 970.864 133.071 969.724C136.661 966.084 140.291 962.473 143.881 958.823C146.121 956.543 148.401 954.304 150.311 951.714C151.071 950.694 152.031 949.814 152.921 948.904C157.641 944.124 162.391 939.373 167.091 934.573C168.431 933.203 169.631 931.703 170.911 930.273C171.981 929.083 173.031 927.873 174.151 926.733C178.521 922.283 182.941 917.883 187.301 913.423C189.871 910.793 192.471 908.213 194.741 905.293C196.301 903.283 198.241 901.573 200.081 899.793C201.731 898.193 202.841 896.303 203.511 894.113C204.091 892.233 204.181 890.383 203.801 888.443C202.891 883.853 201.071 879.573 199.151 875.363C197.021 870.703 195.051 865.993 193.471 861.123C192.291 857.473 190.801 853.943 189.211 850.443C187.561 846.813 186.271 843.013 184.951 839.243C183.731 835.773 182.441 832.343 180.871 829.003C179.851 826.843 179.021 824.583 178.261 822.313C176.471 817.003 174.521 811.773 172.131 806.703C170.911 804.113 170.021 801.353 169.101 798.623C168.071 795.593 166.831 792.654 165.581 789.714C163.651 785.154 161.941 780.494 160.241 775.844C159.251 773.144 158.211 770.474 157.031 767.844C155.661 764.794 154.481 761.634 153.401 758.464C151.841 753.924 150.111 749.463 148.051 745.123C147.091 743.113 146.331 740.993 145.621 738.873C143.791 733.413 141.951 727.973 139.321 722.813C138.311 720.833 137.631 718.673 136.931 716.553C135.231 711.383 133.321 706.304 130.921 701.414C130.291 700.124 129.741 698.784 129.311 697.414C127.561 691.924 125.451 686.574 123.201 681.284C122.201 678.934 121.351 676.513 120.491 674.113C119.051 670.043 117.491 666.023 115.661 662.113C114.511 659.663 113.521 657.114 112.701 654.534C111.041 649.354 109.151 644.253 106.861 639.323C105.171 635.683 103.881 631.913 102.601 628.123C101.681 625.393 100.621 622.733 99.3807 620.123C97.6007 616.363 96.1207 612.493 94.8607 608.513C93.8507 605.323 92.6107 602.184 91.1907 599.154C89.0907 594.654 87.5307 589.943 85.8207 585.303C84.6607 582.153 83.5107 579.003 82.0907 575.953C81.0807 573.783 80.2307 571.533 79.4607 569.263C78.0607 565.173 76.4907 561.164 74.7207 557.224C73.5407 554.604 72.4307 551.933 71.5507 549.203C69.7707 543.723 67.6107 538.394 65.3707 533.094C64.0607 530.004 62.8907 526.853 61.7507 523.703C60.5607 520.393 59.3107 517.123 57.8207 513.923C56.5407 511.183 55.5707 508.284 54.6007 505.414C53.0607 500.864 51.3707 496.384 49.2607 492.064C48.7707 491.064 48.2807 490.044 47.9307 488.984C45.5107 481.694 42.6707 474.574 39.6907 467.504C38.8207 465.444 38.0807 463.324 37.3707 461.204C36.0107 457.104 34.3907 453.104 32.5307 449.204C31.6407 447.324 30.8807 445.404 30.2907 443.394C28.8107 438.324 26.9507 433.394 24.6407 428.624C23.9407 427.184 23.2407 425.734 22.7507 424.224C20.7007 417.814 18.0007 411.674 15.4407 405.464C13.5507 400.884 11.8307 396.234 10.0107 391.624C9.41072 390.094 9.30072 388.524 9.41072 386.914C9.54072 385.094 10.6407 383.904 12.3807 383.724C14.6507 383.494 16.8607 383.664 18.9307 384.714C20.0707 385.294 21.2407 385.854 22.2707 386.594C26.0507 389.304 30.0107 391.704 34.1807 393.764C34.8907 394.114 35.6307 394.494 36.2207 395.014C38.4307 396.924 41.0607 398.114 43.6107 399.444C45.4507 400.404 47.2507 401.443 49.0507 402.493C52.5007 404.503 55.9207 406.564 59.4707 408.424C62.7207 410.134 65.7607 412.234 68.9007 414.134C70.1307 414.874 71.3707 415.624 72.6607 416.254C75.2507 417.524 77.7207 418.984 80.1307 420.574C81.8607 421.714 83.6807 422.734 85.5307 423.674C88.5307 425.194 91.4807 426.794 94.2407 428.724C95.0207 429.274 95.8207 429.844 96.6807 430.234C102.251 432.734 107.211 436.294 112.481 439.314C118.861 442.974 125.291 446.524 131.701 450.124C132.261 450.434 132.861 450.684 133.381 451.044C137.581 454.004 142.101 456.384 146.671 458.694C147.951 459.344 149.101 460.224 150.341 460.964C152.261 462.114 154.151 463.334 156.141 464.324C159.151 465.824 162.061 467.494 164.831 469.404C165.751 470.044 166.651 470.744 167.651 471.224C173.851 474.214 179.551 478.094 185.591 481.374C185.871 481.524 186.151 481.684 186.451 481.804C190.451 483.514 193.721 486.474 197.601 488.374C201.481 490.284 205.231 492.404 208.821 494.824C210.801 496.154 212.961 497.233 215.041 498.423C217.541 499.853 220.031 501.284 222.531 502.704C224.751 503.974 226.931 505.313 229.201 506.483C231.771 507.793 234.251 509.224 236.651 510.834C240.911 513.684 245.351 516.193 250.151 518.073C252.601 519.033 254.831 519.003 257.011 517.603C260.771 515.183 264.511 512.703 268.241 510.243C268.911 509.803 269.461 509.174 270.161 508.814C276.701 505.384 282.281 500.484 288.721 496.904C289.551 496.444 290.301 495.823 291.071 495.243C294.141 492.933 297.311 490.774 300.741 489.024C301.171 488.804 301.601 488.594 302.001 488.324C306.901 485.024 311.801 481.714 316.701 478.404C318.291 477.334 319.821 476.144 321.471 475.174C324.921 473.144 328.171 470.814 331.451 468.544C333.031 467.454 334.691 466.494 336.311 465.464C337.791 464.514 339.411 463.714 340.711 462.564C343.131 460.414 345.921 458.874 348.601 457.134C350.611 455.834 352.591 454.484 354.581 453.154C355.641 452.444 356.681 451.683 357.751 450.993C361.791 448.423 365.951 446.024 369.721 443.024C370.841 442.134 372.161 441.504 373.371 440.724C375.121 439.604 376.851 438.464 378.591 437.314C381.651 435.284 384.711 433.244 387.771 431.214C388.171 430.954 388.631 430.774 389.001 430.474C392.981 427.224 397.431 424.684 401.751 421.944C403.771 420.664 405.611 419.104 407.621 417.784C413.221 414.094 418.881 410.474 424.491 406.794C426.631 405.394 428.701 403.894 430.801 402.434C431.321 402.064 431.811 401.644 432.341 401.294C437.311 398.094 442.281 394.894 447.261 391.714C449.681 390.164 452.101 388.614 454.471 386.984C460.661 382.734 467.001 378.704 473.251 374.544C479.231 370.564 485.181 366.513 491.141 362.493C491.271 362.403 491.391 362.284 491.521 362.204C497.601 358.364 503.471 354.194 509.511 350.294C511.261 349.164 513.081 348.174 514.671 346.824C514.911 346.614 515.191 346.444 515.461 346.274C521.871 342.074 528.311 337.904 534.701 333.654C538.291 331.264 541.871 328.843 545.311 326.243C548.701 323.683 551.241 320.403 552.421 316.243C553.241 313.323 554.081 310.394 554.631 307.424C555.631 302.084 556.611 296.754 557.971 291.484C560.121 283.134 562.121 274.734 563.811 266.274C565.031 260.154 566.471 254.094 568.001 248.064C569.611 241.714 570.901 235.284 572.171 228.864C573.321 223.064 574.781 217.334 576.171 211.584C577.561 205.834 579.101 200.134 580.091 194.294C581.101 188.314 582.561 182.414 584.161 176.544C586.231 168.994 587.661 161.284 589.201 153.614C590.431 147.514 592.021 141.474 593.511 135.434C594.581 131.094 595.631 126.754 596.381 122.324C597.581 115.234 599.301 108.244 601.131 101.284C602.591 95.7135 603.821 90.1035 604.881 84.4435C605.651 80.3635 606.591 76.3135 607.641 72.2935C609.611 64.7135 611.481 57.1035 612.871 49.3935C613.921 43.5735 615.251 37.8135 616.771 32.0935C618.791 24.5235 620.411 16.8635 621.881 9.16351C622.241 7.29351 622.791 5.43351 623.501 3.66351C624.481 1.21351 626.371 -0.0764911 629.111 0.00350889C630.571 0.0435089 631.991 0.203508 633.291 0.893508C634.981 1.79351 636.711 2.64351 638.331 3.66351C640.911 5.26351 643.451 6.93351 645.951 8.67351C649.111 10.8735 652.351 12.9135 655.801 14.6135C656.661 15.0335 657.551 15.4535 658.291 16.0535C661.561 18.6635 665.201 20.6335 668.821 22.7035C672.561 24.8435 676.051 27.4135 679.781 29.5835C683.651 31.8335 687.461 34.1735 691.201 36.6235C693.071 37.8535 695.141 38.7735 696.991 40.0235C701.891 43.3435 707.041 46.2335 712.071 49.3435C716.151 51.8635 720.171 54.4835 724.311 56.9135C724.721 57.1535 725.171 57.3535 725.561 57.6335C731.761 62.1735 738.831 65.3435 745.021 69.9135C745.791 70.4835 746.631 70.9635 747.501 71.3735C749.971 72.5435 752.191 74.1035 754.471 75.5835C756.751 77.0635 759.111 78.4135 761.431 79.8235C761.701 79.9935 762.011 80.1035 762.271 80.2835C769.131 84.9835 776.601 88.7135 783.351 93.5835C784.771 94.6035 786.101 95.7735 787.361 96.9835C789.201 98.7435 789.991 100.964 789.821 103.494C789.741 104.604 789.611 105.734 789.321 106.804C787.121 114.994 785.691 123.344 783.971 131.644C783.521 133.834 782.921 135.994 782.321 138.154C780.651 144.164 779.051 150.174 778.041 156.344C776.831 163.764 775.031 171.064 773.111 178.324C771.261 185.284 769.811 192.314 768.591 199.414C768.021 202.714 767.121 205.964 766.321 209.224C765.371 213.104 764.381 216.974 763.361 220.844C762.091 225.644 761.231 230.514 760.281 235.374C759.241 240.704 758.061 246.003 756.571 251.243C754.951 256.933 753.871 262.754 752.701 268.554C752.291 270.584 751.811 272.614 751.211 274.594C750.591 276.614 750.471 278.653 750.441 280.743C750.391 284.363 753.051 286.184 755.611 286.684C755.921 286.744 756.251 286.804 756.561 286.794C758.151 286.734 759.811 286.904 761.331 286.514C767.091 285.044 773.011 284.694 778.861 283.884C783.611 283.224 788.331 282.354 793.051 281.524C800.451 280.224 807.831 278.794 815.241 277.594C819.181 276.954 823.191 276.784 827.141 276.194C833.621 275.224 840.071 274.093 846.531 272.993C854.411 271.653 862.261 270.184 870.151 268.924C873.931 268.324 877.781 268.114 881.581 267.654C884.281 267.324 886.971 266.934 889.641 266.464C896.571 265.254 903.491 264.004 910.411 262.734C914.501 261.984 918.601 261.374 922.731 260.844C930.181 259.894 937.621 258.914 945.021 257.544C954.451 255.804 963.911 254.244 973.371 252.664C976.361 252.164 979.381 251.764 982.411 251.524C988.001 251.084 993.481 249.934 999.001 249.024C1006.57 247.774 1014.12 246.414 1021.67 245.054C1025.83 244.304 1029.64 245.134 1033.09 247.474C1035.88 249.364 1038.75 251.084 1041.76 252.584C1042.62 253.014 1043.5 253.434 1044.24 254.024C1047.51 256.624 1051.16 258.604 1054.76 260.694C1058.63 262.934 1062.28 265.554 1066.13 267.824C1069.44 269.774 1072.75 271.684 1075.85 273.964C1077.13 274.904 1078.56 275.664 1079.98 276.384C1082.98 277.914 1085.86 279.634 1088.53 281.694C1089.16 282.184 1089.8 282.684 1090.51 283.034C1097.54 286.524 1103.72 291.444 1110.66 295.094C1115.14 298.474 1120.11 301.054 1124.9 303.934C1128.87 306.314 1132.64 309.024 1136.78 311.154C1138.05 311.804 1139.18 312.734 1140.38 313.524C1141.85 314.494 1143.26 315.574 1144.82 316.374C1148.82 318.434 1152.55 320.894 1156.22 323.454C1156.48 323.634 1156.74 323.844 1157.02 323.974C1161.97 326.304 1166.29 329.654 1170.91 332.504C1172.27 333.344 1173.68 334.094 1175.05 334.914C1176.69 335.904 1178.41 336.794 1179.92 337.964C1182.09 339.634 1184.38 341.053 1186.84 342.243C1187.56 342.593 1188.31 342.914 1188.95 343.374C1194.7 347.444 1201 350.624 1206.84 354.554C1208.56 355.714 1210.36 356.754 1212.13 357.854C1215.12 359.704 1218.1 361.584 1221.11 363.394C1222.89 364.464 1224.7 365.494 1226.54 366.454C1229.53 368.014 1232.37 369.764 1234.79 372.164C1235.69 373.054 1236.76 373.794 1237.78 374.554C1238.55 375.124 1239.36 375.644 1240.18 376.144C1244.04 378.554 1245.84 382.094 1245.94 386.574C1245.99 388.814 1246.03 391.054 1246.03 393.284C1246.03 398.404 1245.98 403.514 1245.98 408.634C1245.98 459.154 1245.98 509.683 1245.98 560.203C1245.98 562.123 1245.93 564.043 1245.89 565.953C1245.82 569.063 1244.97 571.964 1243.34 574.594C1240.72 578.804 1238.45 583.203 1236.01 587.513C1233.1 592.653 1229.85 597.603 1227.27 602.933C1223.86 607.413 1221.7 612.633 1218.77 617.393C1218.1 618.483 1217.46 619.594 1216.76 620.664C1215.53 622.534 1214.43 624.463 1213.51 626.523C1212.67 628.413 1211.58 630.204 1210.49 631.964C1208.04 635.894 1205.53 639.804 1203.5 643.974C1203.08 644.834 1202.64 645.703 1202.09 646.483C1199.57 650.013 1197.55 653.823 1195.65 657.703C1195.37 658.273 1195.12 658.883 1194.75 659.393C1191.26 664.203 1188.87 669.653 1185.79 674.693C1185.12 675.783 1184.41 676.843 1183.72 677.923C1182.5 679.803 1181.35 681.703 1180.43 683.763C1179.52 685.803 1178.32 687.703 1177.2 689.643C1176.15 691.433 1174.89 693.114 1173.96 694.974C1170.75 701.424 1166.71 707.393 1163.31 713.733C1162.48 715.283 1161.63 716.824 1160.64 718.284C1158.93 720.804 1157.44 723.443 1156.09 726.173C1155.24 727.893 1154.23 729.524 1153.31 731.214C1151.17 735.134 1148.41 738.693 1146.66 742.863C1145.8 744.903 1144.47 746.763 1143.24 748.633C1141.39 751.443 1139.73 754.343 1138.18 757.333C1136.94 759.743 1135.42 762.013 1134.04 764.353C1133.07 766.003 1132.06 767.643 1131.2 769.353C1129.62 772.503 1127.94 775.583 1125.93 778.483C1125.11 779.663 1124.49 780.974 1123.77 782.214C1121.86 785.544 1119.96 788.863 1118.04 792.183C1117.64 792.873 1117.16 793.524 1116.78 794.224C1113.97 799.434 1111.16 804.623 1107.85 809.543C1107.14 810.593 1106.63 811.793 1106.07 812.943C1104.74 815.683 1103.24 818.304 1101.54 820.844C1100.3 822.694 1099.29 824.704 1098.21 826.664C1097.2 828.484 1096.38 830.413 1095.21 832.123C1092.86 835.573 1090.83 839.183 1089.03 842.933C1088.75 843.513 1088.48 844.093 1088.11 844.613C1084.45 849.883 1081.71 855.683 1078.49 861.203C1077.76 862.443 1076.97 863.643 1076.23 864.873C1075.32 866.373 1074.33 867.844 1073.54 869.414C1071.97 872.574 1070.17 875.583 1068.2 878.503C1067.22 879.953 1066.45 881.553 1065.66 883.123C1063.84 886.683 1062.03 890.243 1059.71 893.523C1058.97 894.563 1058.37 895.703 1057.81 896.853C1055.9 900.733 1053.64 904.403 1051.3 908.043C1050.09 909.923 1048.86 911.794 1048.04 913.904C1047.7 914.784 1047.2 915.623 1046.68 916.423C1043.63 921.123 1041.12 926.133 1038.3 930.953C1035.31 936.053 1032.23 941.093 1029.55 946.373C1025.24 952.353 1022.48 959.263 1018.28 965.323C1018.1 965.583 1017.95 965.874 1017.81 966.164C1015.68 970.644 1013.15 974.903 1010.47 979.083C1008.83 981.633 1007.5 984.374 1006.02 987.034C1005.48 988.014 1005 989.043 1004.35 989.943C1002.01 993.203 1000.13 996.723 998.341 1000.3C997.631 1001.73 996.771 1003.08 995.961 1004.46C994.091 1007.62 992.151 1010.74 990.491 1014.03C989.191 1016.59 987.611 1019.01 986.141 1021.48C985.901 1021.89 985.561 1022.25 985.351 1022.68C981.861 1029.88 976.971 1036.29 973.451 1043.47C973.031 1044.33 972.631 1045.22 972.081 1046C968.181 1051.49 965.411 1057.65 961.831 1063.33C961.051 1064.56 960.501 1065.88 960.151 1067.28C959.571 1069.61 961.571 1071.83 963.961 1071.5C964.431 1071.44 964.911 1071.33 965.361 1071.17C965.811 1071.01 966.261 1070.82 966.651 1070.55C972.461 1066.59 978.921 1063.65 984.431 1059.2C985.411 1058.41 986.641 1057.93 987.731 1057.26C990.721 1055.42 993.701 1053.55 996.691 1051.7C997.781 1051.03 998.851 1050.32 999.961 1049.69C1003.3 1047.8 1006.61 1045.89 1009.73 1043.63C1012.05 1041.95 1014.67 1040.69 1017.14 1039.2C1019.19 1037.96 1021.29 1036.78 1023.22 1035.37C1025.04 1034.03 1026.98 1032.96 1028.93 1031.86C1031.16 1030.61 1033.42 1029.38 1035.47 1027.87C1037.54 1026.33 1039.74 1025.07 1042 1023.86C1043.55 1023.03 1045.13 1022.22 1046.54 1021.19C1049.53 1019.03 1052.66 1017.14 1055.86 1015.32C1058.78 1013.67 1061.54 1011.75 1064.38 1009.95C1065.32 1009.35 1066.22 1008.66 1067.22 1008.15C1071.5 1005.96 1075.3 1002.96 1079.5 1000.67C1085.55 997.383 1090.96 993.053 1097.14 990.013C1097.71 989.733 1098.23 989.343 1098.76 988.993C1102.5 986.523 1106.17 983.963 1110.22 982.003C1110.36 981.933 1110.5 981.843 1110.63 981.753C1115.76 978.203 1121.16 975.083 1126.57 971.983C1127.4 971.513 1128.13 970.863 1128.93 970.333C1130.66 969.183 1132.34 967.923 1134.16 966.953C1136.85 965.513 1139.4 963.884 1141.94 962.224C1144.34 960.654 1146.87 959.253 1149.34 957.793C1150.72 956.983 1152.22 956.343 1153.48 955.373C1156.8 952.843 1160.43 950.833 1164.01 948.733C1166.49 947.273 1168.87 945.653 1171.31 944.133C1173.21 942.953 1175.11 941.763 1177.06 940.673C1178.74 939.733 1180.33 938.693 1181.92 937.613C1184.56 935.823 1187.39 934.304 1190.12 932.654C1192.03 931.494 1194.04 930.443 1195.8 929.083C1197.85 927.503 1200.06 926.263 1202.32 925.063C1203.73 924.323 1205.1 923.483 1206.46 922.643C1209.99 920.453 1213.51 918.243 1217.03 916.023C1220.27 913.973 1223.49 911.904 1226.73 909.844C1229.56 908.044 1232.44 906.303 1235.23 904.443C1237.18 903.143 1239.24 902.523 1241.57 902.763C1243.14 902.923 1244.24 903.733 1244.99 905.073C1245.64 906.213 1245.89 907.473 1245.92 908.753C1245.98 910.833 1246 912.913 1246 914.983C1246 946.963 1246 978.944 1246 1010.91L1246.01 1010.83ZM624.791 848.303H624.901C624.901 817.283 624.901 786.273 624.901 755.253C624.901 753.973 624.921 752.693 624.791 751.423C624.371 747.353 620.571 745.363 617.061 747.373C616.241 747.843 615.451 748.433 614.791 749.113C613.341 750.593 611.951 752.143 610.581 753.703C609.731 754.663 609.021 755.734 608.141 756.654C603.841 761.164 599.501 765.623 595.351 770.293C590.371 775.903 584.841 781.013 579.911 786.703C575.201 792.133 569.821 796.943 565.141 802.423C560.891 807.403 555.971 811.773 551.671 816.733C546.441 822.763 540.451 828.104 535.211 834.164C532.191 837.674 528.781 840.843 525.551 844.173C524.551 845.203 523.561 846.253 522.591 847.313C521.081 848.963 519.641 850.683 518.101 852.303C515.021 855.553 511.721 858.613 508.821 862.013C506.221 865.063 503.421 867.903 500.651 870.773C500.091 871.353 499.551 871.933 499.001 872.513C493.641 878.223 488.461 884.103 482.881 889.603C481.861 890.613 480.801 891.613 479.931 892.753C477.491 895.943 474.551 898.664 471.771 901.534C469.101 904.294 466.271 906.913 463.821 909.853C461.041 913.173 457.981 916.203 454.971 919.293C452.631 921.703 450.171 924.013 448.051 926.603C446.121 928.963 444.091 931.203 441.901 933.313C436.491 938.543 431.521 944.163 426.511 949.773C424.961 951.513 424.121 953.523 424.051 955.863C423.981 957.953 424.131 960.003 424.801 962.013C425.671 964.593 426.511 967.174 427.781 969.594C429.651 973.144 431.041 976.873 432.331 980.673C433.621 984.453 435.051 988.193 436.641 991.853C438.361 995.813 439.951 999.814 441.341 1003.9C442.111 1006.17 443.041 1008.38 443.971 1010.59C445.901 1015.15 448.001 1019.64 449.471 1024.39C450.371 1027.29 451.341 1030.17 452.731 1032.89C454.621 1036.6 456.061 1040.5 457.411 1044.43C458.191 1046.7 459.021 1048.95 459.921 1051.17C461.911 1056.05 464.061 1060.87 465.671 1065.9C466.441 1068.33 467.401 1070.73 468.531 1073.01C470.471 1076.89 471.931 1080.94 473.271 1085.05C474.611 1089.16 476.191 1093.17 478.091 1097.05C478.721 1098.34 479.321 1099.66 479.821 1101C481.151 1104.6 482.381 1108.23 483.721 1111.83C484.501 1113.93 485.321 1116.02 486.281 1118.03C487.591 1120.78 488.641 1123.62 489.651 1126.49C490.761 1129.65 491.821 1132.87 493.281 1135.87C495.541 1140.49 497.171 1145.33 498.791 1150.18C499.751 1153.07 500.811 1155.91 502.221 1158.61C503.781 1161.59 505.001 1164.72 505.991 1167.94C507.261 1172.07 508.701 1176.15 510.601 1180.03C512.441 1183.78 513.841 1187.68 515.191 1191.61C516.021 1194.03 516.981 1196.4 517.951 1198.76C519.831 1203.34 521.941 1207.83 523.421 1212.57C524.471 1215.93 525.801 1219.18 527.331 1222.36C528.581 1224.94 529.611 1227.65 530.501 1230.38C531.591 1233.73 532.851 1237 534.281 1240.22C536.351 1244.89 538.481 1249.55 539.941 1254.47C540.891 1257.7 542.271 1260.75 543.671 1263.81C545.201 1267.15 546.531 1270.59 547.661 1274.08C548.801 1277.59 550.061 1281.03 551.661 1284.34C552.851 1286.79 553.811 1289.32 554.721 1291.89C555.951 1295.35 557.171 1298.83 558.651 1302.19C560.521 1306.44 562.271 1310.72 563.761 1315.12C564.731 1317.99 565.691 1320.91 567.031 1323.61C569.531 1328.65 571.271 1333.95 573.091 1339.24C573.921 1341.65 575.001 1343.98 575.961 1346.35C577.401 1349.91 578.931 1353.42 580.221 1357.03C581.461 1360.5 582.781 1363.92 584.381 1367.23C585.421 1369.38 586.281 1371.63 587.131 1373.87C587.861 1375.81 588.491 1377.8 589.121 1379.78C589.991 1382.53 591.001 1385.22 592.341 1387.78C594.051 1391.05 595.371 1394.47 596.491 1397.99C597.941 1402.56 599.461 1407.11 601.731 1411.37C602.181 1412.21 602.491 1413.13 602.821 1414.03C604.191 1417.78 605.481 1421.57 606.931 1425.29C609.151 1430.95 611.321 1436.61 613.181 1442.4C613.621 1443.77 614.111 1445.12 614.651 1446.46C615.761 1449.23 617.791 1451.24 620.161 1452.94C620.851 1453.43 622.141 1453.3 622.881 1452.76C623.671 1452.17 624.311 1451.44 624.501 1450.46C624.681 1449.53 624.781 1448.56 624.801 1447.61C624.871 1443.93 624.931 1440.26 624.921 1436.58C624.881 1389.73 624.841 1342.89 624.791 1296.04C624.791 1294.12 624.771 1292.2 624.861 1290.29C624.921 1289.02 625.031 1287.72 625.351 1286.5C626.881 1280.73 629.551 1275.47 632.741 1270.45C633.761 1268.83 634.841 1267.24 635.751 1265.56C638.121 1261.21 640.461 1256.84 643.181 1252.69C643.711 1251.89 644.171 1251.05 644.651 1250.22C646.151 1247.58 647.551 1244.89 649.141 1242.3C653.241 1235.63 656.561 1228.51 660.891 1221.97C661.071 1221.71 661.201 1221.41 661.341 1221.12C663.061 1217.51 665.011 1214.03 667.351 1210.76C668.001 1209.86 668.491 1208.84 669.001 1207.84C672.731 1200.59 677.481 1193.92 681.111 1186.61C681.251 1186.33 681.481 1186.08 681.641 1185.81C683.781 1182.25 685.841 1178.65 687.821 1174.99C690.941 1169.24 694.531 1163.74 697.491 1157.89C698.131 1156.62 699.101 1155.5 699.871 1154.29C700.821 1152.81 701.821 1151.35 702.621 1149.79C704.741 1145.66 706.831 1141.53 709.581 1137.77C712.241 1132.3 715.521 1127.18 718.531 1121.91C720.671 1118.17 722.541 1114.27 725.051 1110.74C725.601 1109.96 726.031 1109.09 726.451 1108.23C728.371 1104.36 730.411 1100.56 732.901 1097.02C733.631 1095.98 734.141 1094.79 734.751 1093.66C735.591 1092.12 736.361 1090.53 737.301 1089.05C741.941 1081.77 745.661 1073.95 750.451 1066.76C750.801 1066.23 751.071 1065.64 751.351 1065.07C753.191 1061.34 755.131 1057.67 757.581 1054.28C758.321 1053.25 758.841 1052.06 759.461 1050.94C760.471 1049.12 761.461 1047.3 762.491 1045.49C764.161 1042.58 765.851 1039.68 767.541 1036.78C769.471 1033.47 771.391 1030.15 773.341 1026.84C774.231 1025.33 775.281 1023.9 776.061 1022.33C777.991 1018.46 780.301 1014.82 782.451 1011.08C785.631 1005.54 788.781 999.983 791.971 994.453C794.291 990.443 796.471 986.354 799.031 982.474C799.731 981.414 800.391 980.304 800.931 979.154C802.711 975.394 804.821 971.823 806.991 968.273C810.411 962.693 813.801 957.064 816.851 951.284C820.511 944.354 824.901 937.853 828.451 930.863C829.241 929.303 830.251 927.844 831.171 926.344C835.351 919.534 839.041 912.444 843.151 905.594C843.231 905.454 843.301 905.314 843.371 905.164C844.571 902.724 845.831 900.334 847.531 898.164C848.411 897.044 849.051 895.723 849.701 894.443C851.511 890.873 853.391 887.353 855.701 884.073C856.341 883.163 856.851 882.154 857.371 881.164C859.901 876.354 862.481 871.573 865.511 867.043C866.041 866.243 866.561 865.433 866.971 864.573C868.821 860.663 871.211 857.064 873.411 853.344C874.221 851.974 875.001 850.574 875.731 849.154C879.261 842.334 883.501 835.934 887.191 829.214C887.341 828.934 887.551 828.684 887.721 828.414C889.341 825.844 890.981 823.294 892.161 820.474C892.651 819.304 893.341 818.203 894.051 817.143C898.861 809.963 902.401 802.033 907.491 795.023C908.631 793.453 909.131 791.563 909.591 789.693C909.741 789.083 909.751 788.423 909.751 787.793C909.771 786.023 908.491 784.804 906.691 784.844C906.211 784.854 905.721 784.843 905.261 784.953C902.911 785.493 900.641 786.263 898.721 787.813C896.471 789.633 894.011 791.103 891.531 792.573C888.651 794.283 885.721 795.933 883.051 797.993C881.671 799.063 880.121 799.933 878.611 800.823C875.991 802.363 873.191 803.644 870.751 805.414C867.241 807.964 863.401 809.923 859.731 812.193C854.561 815.383 849.371 818.533 844.221 821.743C840.551 824.023 837.001 826.483 833.121 828.393C832.551 828.673 831.951 828.954 831.461 829.344C827.941 832.154 823.881 834.074 820.071 836.414C814.761 839.674 809.361 842.803 804.161 846.233C797.881 850.373 791.251 853.923 785.011 858.113C781.301 860.603 777.111 862.333 773.611 865.183C773.001 865.683 772.221 865.973 771.531 866.383C768.361 868.253 765.171 870.073 762.041 872.003C755.921 875.783 749.931 879.774 743.721 883.404C740.131 885.504 736.581 887.653 733.111 889.943C731.781 890.823 730.381 891.614 728.961 892.344C725.961 893.874 723.081 895.574 720.421 897.654C719.421 898.434 718.271 899.023 717.181 899.693C714.721 901.193 712.261 902.673 709.811 904.183C708.181 905.193 706.641 906.373 704.931 907.233C700.921 909.263 697.111 911.593 693.451 914.183C692.671 914.733 691.851 915.253 690.991 915.673C687.531 917.373 684.341 919.503 681.181 921.683C678.671 923.413 676.111 925.023 673.371 926.373C672.081 927.013 670.791 927.693 669.651 928.543C666.571 930.863 663.211 932.714 659.871 934.594C658.201 935.534 656.491 936.453 654.991 937.623C652.831 939.313 650.501 940.673 648.061 941.883C645.331 943.243 642.761 944.843 640.501 946.923C640.031 947.353 639.551 947.783 639.021 948.143C636.311 950.033 633.361 951.053 630.001 950.703C628.461 950.543 627.271 949.873 626.351 948.683C625.441 947.513 624.931 946.173 624.851 944.703C624.761 943.113 624.741 941.514 624.741 939.914C624.741 934.474 624.791 929.043 624.791 923.603C624.791 898.503 624.791 873.403 624.791 848.293V848.303ZM625.661 733.853C627.321 733.923 628.791 733.334 630.201 732.534C632.991 730.964 635.801 729.443 638.591 727.893C639.571 727.353 640.551 726.813 641.511 726.243C645.351 723.943 649.161 721.603 653.141 719.543C655.831 718.153 658.281 716.334 660.861 714.724C661.941 714.044 663.041 713.384 664.171 712.784C665.721 711.964 667.381 711.304 668.881 710.404C674.771 706.864 680.751 703.484 686.691 700.034C688.621 698.914 690.531 697.743 692.481 696.643C695.681 694.823 699.051 693.263 702.061 691.183C704.711 689.353 707.501 687.843 710.331 686.363C711.891 685.553 713.391 684.643 714.911 683.763C717.541 682.233 720.101 680.593 722.791 679.193C725.351 677.863 727.861 676.463 730.251 674.863C731.181 674.243 732.111 673.613 733.091 673.073C738.001 670.383 742.871 667.633 747.661 664.743C750.531 663.003 753.631 661.633 756.441 659.813C760.341 657.293 764.431 655.123 768.501 652.893C773.681 650.053 778.751 646.993 783.881 644.053C788.041 641.673 792.121 639.153 796.381 636.943C798.221 635.983 799.891 634.713 801.671 633.643C803.861 632.323 806.031 630.953 808.291 629.773C811.271 628.213 814.241 626.663 817.001 624.733C817.651 624.273 818.321 623.814 819.031 623.464C823.631 621.204 828.121 618.763 832.341 615.833C833.121 615.293 834.021 614.904 834.881 614.474C838.331 612.774 841.641 610.853 844.861 608.743C847.531 606.993 850.391 605.534 853.171 603.964C854.561 603.174 856.051 602.523 857.351 601.613C860.511 599.403 863.981 597.753 867.311 595.863C873.141 592.533 878.891 589.073 884.791 585.873C887.741 584.273 890.501 582.333 893.481 580.793C896.901 579.033 900.141 576.993 903.341 574.873C904.801 573.903 906.371 573.093 907.941 572.303C914.521 569.003 920.491 564.633 927.171 561.503C928.031 561.103 928.781 560.453 929.591 559.943C930.951 559.093 932.271 558.173 933.681 557.443C938.521 554.953 943.241 552.293 947.721 549.193C948.761 548.473 949.951 547.943 951.101 547.383C954.131 545.913 957.031 544.243 959.821 542.353C961.141 541.453 962.551 540.674 963.971 539.964C967.411 538.254 970.791 536.434 973.931 534.214C974.971 533.474 976.131 532.913 977.251 532.293C979.901 530.813 982.611 529.423 985.211 527.853C988.631 525.793 992.041 523.713 995.631 521.933C997.491 521.013 999.181 519.784 1000.97 518.724C1003.31 517.334 1005.61 515.893 1008.02 514.633C1011 513.073 1013.95 511.484 1016.73 509.584C1018.04 508.684 1019.46 507.924 1020.89 507.214C1024.34 505.514 1027.68 503.654 1030.83 501.414C1032.52 500.214 1034.35 499.233 1036.26 498.363C1038.29 497.433 1040.24 496.313 1042.12 495.113C1045.63 492.883 1049.09 490.574 1052.87 488.814C1053.88 488.344 1054.85 487.754 1055.75 487.104C1058.89 484.864 1062.34 483.184 1065.74 481.394C1067.86 480.284 1069.91 479.034 1071.98 477.824C1074.05 476.624 1076.11 475.394 1078.17 474.174C1081.75 472.064 1085.29 469.874 1088.92 467.864C1095.22 464.394 1101.37 460.664 1107.65 457.164C1110.59 455.534 1113.58 454.024 1116.35 452.114C1117.79 451.114 1119.38 450.344 1120.92 449.474C1122.87 448.374 1124.85 447.324 1126.77 446.184C1129.39 444.644 1131.95 443.004 1134.57 441.474C1137.05 440.024 1139.64 438.754 1142.08 437.234C1148.05 433.504 1154.46 430.544 1160.27 426.554C1160.66 426.284 1161.1 426.074 1161.54 425.884C1168.7 422.654 1175.01 417.894 1182.02 414.374C1184.15 413.304 1186.11 411.884 1188.16 410.634C1189.11 410.054 1190.03 409.354 1191.06 408.954C1193.63 407.974 1195.86 406.404 1198.24 405.114C1201.47 403.354 1204.69 401.584 1207.9 399.784C1209.43 398.924 1210.94 398.014 1212.43 397.084C1214.87 395.564 1217.27 393.974 1219.73 392.474C1221.4 391.464 1222.84 390.234 1224.02 388.694C1224.97 387.464 1224.54 385.574 1223.14 385.064C1221.33 384.404 1219.48 383.844 1217.53 384.124C1215.32 384.444 1213.11 384.814 1210.91 385.194C1208.08 385.684 1205.24 386.204 1202.42 386.734C1197.86 387.594 1193.32 388.514 1188.76 389.334C1184.83 390.044 1180.89 390.694 1176.94 391.264C1173.46 391.764 1169.94 391.974 1166.47 392.544C1157.8 393.964 1149.13 395.444 1140.49 397.044C1133.73 398.294 1126.91 399.124 1120.1 400.084C1114.88 400.814 1109.67 401.634 1104.47 402.504C1098.17 403.564 1091.89 404.804 1085.58 405.824C1079.27 406.844 1072.93 407.694 1066.61 408.594C1063.13 409.094 1059.63 409.454 1056.17 410.054C1050.34 411.074 1044.55 412.274 1038.73 413.314C1034.48 414.064 1030.21 414.724 1025.94 415.314C1020.4 416.094 1014.83 416.654 1009.31 417.514C1003.31 418.444 997.341 419.604 991.361 420.664C984.121 421.944 976.921 423.414 969.591 424.154C966.571 424.464 963.551 424.804 960.561 425.314C950.951 426.934 941.351 428.694 931.741 430.284C926.221 431.194 920.741 432.294 915.151 432.754C912.291 432.994 909.441 433.444 906.601 433.944C895.421 435.884 884.251 437.904 873.071 439.834C869.921 440.374 866.751 440.754 863.571 441.154C859.921 441.614 856.241 441.854 852.631 442.464C844.911 443.764 837.221 445.284 829.511 446.644C824.951 447.444 820.371 448.174 815.781 448.824C811.981 449.354 808.141 449.564 804.361 450.194C796.001 451.574 787.661 453.044 779.331 454.634C773.201 455.804 767.031 456.704 760.841 457.414C752.891 458.324 745.041 459.804 737.161 461.144C730.861 462.224 724.571 463.354 718.251 464.334C711.621 465.354 704.961 466.234 698.311 467.144C694.291 467.694 690.551 468.984 687.081 471.084C685.171 472.244 683.201 473.314 681.271 474.444C680.441 474.924 679.641 475.453 678.851 475.993C675.681 478.153 672.561 480.383 669.351 482.493C664.551 485.653 659.871 488.984 654.881 491.884C650.051 494.694 645.461 497.914 640.761 500.964C640.231 501.314 639.741 501.743 639.221 502.103C636.581 503.903 633.931 505.694 631.281 507.474C630.221 508.184 629.111 508.823 628.051 509.543C625.541 511.253 623.071 513.024 620.551 514.714C617.501 516.764 614.201 518.424 611.481 520.964C611.021 521.394 610.441 521.723 609.871 521.993C606.951 523.363 604.371 525.263 601.821 527.183C597.211 530.633 591.911 533.054 587.591 536.914C587.471 537.014 587.321 537.084 587.181 537.164C582.721 539.694 578.531 542.613 574.321 545.523C570.241 548.333 565.871 550.693 561.961 553.773C560.841 554.653 559.511 555.273 558.291 556.043C556.671 557.073 554.941 557.983 553.511 559.233C551.321 561.153 548.861 562.623 546.401 564.103C543.941 565.593 541.521 567.123 539.211 568.873C537.301 570.313 535.211 571.513 533.201 572.823C531.871 573.703 530.541 574.583 529.221 575.483C527.371 576.743 525.591 578.123 523.661 579.243C519.511 581.663 515.581 584.403 511.561 587.023C507.941 589.373 504.291 591.663 500.791 594.203C499.111 595.423 497.271 596.403 495.511 597.513C494.031 598.453 492.491 599.333 491.111 600.423C487.841 603.013 484.211 605.054 480.751 607.344C477.151 609.724 473.761 612.414 469.991 614.534C469.161 615.004 468.331 615.513 467.591 616.103C465.201 617.993 462.651 619.623 460.011 621.143C457.941 622.333 455.941 623.703 454.031 625.143C452.161 626.553 451.131 628.504 451.031 630.904C450.961 632.604 451.501 634.004 452.711 635.224C453.861 636.384 455.221 637.183 456.671 637.883C460.131 639.553 463.511 641.364 466.661 643.594C467.181 643.964 467.721 644.314 468.301 644.594C472.921 646.824 477.241 649.553 481.631 652.183C485.871 654.723 490.301 656.923 494.501 659.583C499.221 662.573 504.341 664.903 508.931 668.133C509.971 668.863 511.161 669.393 512.311 669.953C519.371 673.373 525.801 677.903 532.761 681.513C532.901 681.583 533.031 681.693 533.171 681.763C536.081 683.443 538.931 685.223 541.911 686.763C544.611 688.163 547.291 689.583 549.811 691.303C550.871 692.023 551.991 692.643 553.081 693.303C557.171 695.803 561.511 697.884 565.441 700.654C566.871 701.664 568.531 702.334 570.081 703.154C572.061 704.194 574.211 705.013 575.991 706.323C579.371 708.813 583.051 710.693 586.761 712.573C588.041 713.223 589.231 714.053 590.441 714.823C593.821 716.963 597.131 719.193 600.861 720.733C601.741 721.093 602.541 721.654 603.361 722.164C604.311 722.754 605.231 723.393 606.161 724.023C611.191 727.463 616.901 729.703 622.041 732.953C623.131 733.643 624.411 733.893 625.721 733.853H625.661ZM342.731 744.513C344.651 744.613 346.291 744.123 347.591 742.753C348.581 741.713 349.611 740.704 350.521 739.594C353.151 736.384 355.721 733.124 358.351 729.914C359.971 727.934 361.671 726.033 363.301 724.063C365.851 721.003 368.371 717.904 370.931 714.844C373.181 712.144 375.461 709.473 377.731 706.793C378.971 705.333 380.231 703.883 381.461 702.423C385.151 698.023 388.741 693.533 392.561 689.233C394.901 686.603 397.201 683.963 399.441 681.253C401.681 678.553 404.011 675.913 406.271 673.233C409.051 669.943 411.811 666.623 414.571 663.323C417.651 659.653 420.711 655.973 423.811 652.323C426.191 649.523 428.621 646.773 431.011 643.983C432.781 641.923 434.571 639.873 436.251 637.753C438.471 634.953 438.161 631.083 435.381 628.733C433.311 626.993 431.151 625.263 428.771 624.013C424.101 621.553 419.531 618.933 415.061 616.133C413.711 615.283 412.251 614.613 410.871 613.823C408.521 612.473 406.131 611.163 403.851 609.693C401.161 607.963 398.351 606.464 395.551 604.914C389.121 601.374 382.861 597.513 376.411 594.003C375.851 593.703 375.351 593.283 374.811 592.953C372.751 591.723 370.701 590.483 368.621 589.303C367.091 588.433 365.471 587.733 363.981 586.803C359.241 583.833 354.491 580.893 349.421 578.493C348.851 578.223 348.311 577.853 347.791 577.483C344.651 575.253 341.221 573.553 337.831 571.733C334.461 569.923 331.271 567.763 327.951 565.863C324.071 563.643 320.051 561.684 316.331 559.164C314.221 557.734 311.881 556.643 309.661 555.373C307.311 554.023 304.971 552.643 302.641 551.253C301.821 550.763 301.071 550.123 300.221 549.703C295.321 547.333 290.781 544.343 286.051 541.683C281.171 538.943 276.431 535.983 271.651 533.083C270.421 532.343 269.141 531.673 267.851 531.043C266.521 530.393 265.091 530.263 263.631 530.423C261.871 530.623 260.341 532.053 260.071 533.813C259.771 535.733 259.831 537.644 260.601 539.464C261.661 541.964 262.681 544.484 263.881 546.914C265.881 550.944 267.371 555.133 268.611 559.443C269.231 561.583 269.991 563.703 270.871 565.743C273.211 571.173 275.591 576.583 277.321 582.243C277.881 584.073 278.601 585.853 279.321 587.633C281.621 593.253 283.881 598.883 285.731 604.673C286.501 607.103 287.611 609.423 288.521 611.803C289.841 615.233 291.321 618.613 292.371 622.123C293.661 626.423 295.231 630.603 297.151 634.643C298.461 637.393 299.511 640.223 300.471 643.113C301.921 647.513 303.201 651.973 305.361 656.113C305.731 656.813 305.951 657.593 306.221 658.353C307.671 662.413 309.101 666.483 310.561 670.543C311.261 672.493 311.891 674.493 312.771 676.363C314.061 679.123 315.101 681.963 316.091 684.833C317.811 689.813 319.361 694.863 321.631 699.623C323.691 703.973 325.131 708.543 326.681 713.073C327.301 714.883 327.811 716.753 328.611 718.483C331.101 723.863 333.091 729.413 334.721 735.103C335.161 736.633 335.701 738.153 336.361 739.603C336.811 740.603 337.451 741.554 338.141 742.414C339.311 743.864 340.881 744.574 342.701 744.464L342.731 744.513Z" fill="black"/>
</svg>
