<svg width="50" height="57" viewBox="0 0 50 57" fill="none" xmlns="http://www.w3.org/2000/svg">
<path fill-rule="evenodd" clip-rule="evenodd" d="M18.5746 3.25297C15.1532 5.01985 12.3539 6.51498 12.3545 6.57579C12.3561 6.73275 20.5662 10.8547 20.8576 10.8446C20.9901 10.8402 21.9517 10.4014 22.9943 9.8696L24.8903 8.90285L26.961 9.95799L29.0315 11.0133L32.4225 9.50282C37.5319 7.22673 38.0626 6.97731 37.9794 6.89351C37.869 6.78233 36.0364 5.80632 31.0643 3.21133C28.6613 1.95714 26.329 0.72745 25.8813 0.478622C25.4336 0.229794 25.0062 0.029628 24.9315 0.0335026C24.8569 0.0373772 21.9962 1.48615 18.5746 3.25297ZM3.56813 10.9566L0.00642572 12.7804V20.7848C0.00642572 25.1873 0.0531944 28.7891 0.110562 28.7891C0.167731 28.7891 1.9201 28.0361 4.00462 27.1157L7.79467 25.4423V17.0051L9.64673 18.0054C11.0739 18.7755 12.5019 19.5441 13.9308 20.311L16.3628 21.6164L17.445 21.1313C18.1237 20.8266 18.801 20.5189 19.477 20.2082C19.9993 19.9671 21.2815 19.3945 22.3263 18.9357C23.371 18.4767 24.3381 18.0151 24.4752 17.9098C24.6574 17.7701 22.4361 16.5532 16.2593 13.4087C11.6033 11.0385 7.64442 9.10669 7.46185 9.11595C7.27928 9.12521 5.52711 9.95339 3.56813 10.9566ZM38.6213 11.4688C36.1956 12.5544 34.2092 13.486 34.2069 13.5391C34.2048 13.5922 35.5269 14.3715 37.1451 15.2707C38.7632 16.17 40.0872 16.9539 40.0872 17.013C40.0872 17.0719 38.6553 17.7597 36.9054 18.5417C35.1553 19.3235 30.7318 21.3039 27.0752 22.9426L14.823 28.4328C11.741 29.814 8.96289 31.0589 8.64949 31.1996C2.35427 34.0248 0.623957 34.8087 0.386338 34.9432C0.147394 35.0787 0.0932723 35.8658 0.0507433 39.8161L0 44.5276L3.18504 46.1364L6.37001 47.7452L10.7865 45.7693C13.2156 44.6826 15.2029 43.7365 15.2029 43.6669C15.2029 43.5974 14.7541 43.3074 14.2057 43.0223C13.657 42.7371 12.5245 42.1059 11.6887 41.6193C10.853 41.1326 10.0196 40.6861 9.83665 40.6269C9.65375 40.5678 9.50676 40.4645 9.50974 40.3972C9.51278 40.33 11.4576 39.4142 13.8313 38.3619C18.4417 36.3185 21.9699 34.7435 29.5446 31.3477C32.9317 29.8295 36.3193 28.3123 39.7073 26.796C42.6848 25.4637 46.1468 23.9076 47.4005 23.3381L49.68 22.3027L49.7307 17.5375L49.7816 12.7725L46.5512 11.1288C44.7744 10.2248 43.2556 9.48739 43.176 9.49008C43.0965 9.49258 41.0468 10.3829 38.6213 11.4688ZM48.8145 28.6596C48.3385 28.8901 47.3982 29.3217 46.725 29.6186C46.0518 29.9155 44.7744 30.4869 43.8863 30.8886L42.2716 31.6187L42.2348 35.8021C42.2145 38.1029 42.129 39.9752 42.0449 39.963C41.8538 39.9348 38.8276 38.3963 35.7856 36.7804C33.5901 35.6143 33.4522 35.5679 32.9363 35.8212C32.638 35.9677 30.8553 36.7603 28.9748 37.5828C27.0942 38.4052 25.4942 39.1318 25.419 39.1976C25.3439 39.2633 29.1288 41.2969 33.83 43.717L42.3775 48.1172L46.0288 46.2447C48.0368 45.215 49.7444 44.2757 49.823 44.1576C50 43.8919 49.9848 28.2041 49.8076 28.2253C49.7375 28.2336 49.2905 28.4291 48.8145 28.6596ZM28.5949 47.0732C27.9615 47.3432 27.3283 47.6135 26.6953 47.8842C24.7837 48.704 25.1584 48.7312 22.8842 47.6089C21.3695 46.8614 20.7166 46.6308 20.4332 46.7428C20.2206 46.8267 18.3911 47.6427 16.3674 48.5559C14.3437 49.4692 12.6178 50.2164 12.5319 50.2164C11.6829 50.2164 13.0944 51.0525 18.5413 53.7763L24.9291 56.9703L27.6168 55.6549C29.095 54.9314 32.0765 53.4827 34.2426 52.4355C36.4085 51.388 38.1538 50.5039 38.1212 50.4705C38.0882 50.4373 36.2734 49.5134 34.088 48.4175L30.1145 46.4252L28.5949 47.0732Z" fill="#1C1142"/>
</svg>
